<mxfile host="app.diagrams.net" modified="2024-03-26T08:14:32.867Z" agent="Mozilla/5.0 (Windows NT 10.0; Win64; x64) AppleWebKit/537.36 (KHTML, like Gecko) Chrome/123.0.0.0 Safari/537.36" etag="u1ZlI0eI8JJ2b-n9x5Q-" version="24.1.0" type="github">
  <diagram name="Page-1" id="e7e014a7-5840-1c2e-5031-d8a46d1fe8dd">
    <mxGraphModel dx="2074" dy="1140" grid="1" gridSize="10" guides="1" tooltips="1" connect="1" arrows="1" fold="1" page="1" pageScale="1" pageWidth="1169" pageHeight="826" background="none" math="0" shadow="0">
      <root>
        <mxCell id="0" />
        <mxCell id="1" parent="0" />
        <mxCell id="H85B8ajB7otpc1GVoilx-53" value="" style="edgeStyle=orthogonalEdgeStyle;rounded=0;orthogonalLoop=1;jettySize=auto;html=1;strokeColor=#000000;" edge="1" parent="1" source="H85B8ajB7otpc1GVoilx-41" target="H85B8ajB7otpc1GVoilx-43">
          <mxGeometry relative="1" as="geometry" />
        </mxCell>
        <mxCell id="H85B8ajB7otpc1GVoilx-41" value="" style="ellipse;shape=startState;fillColor=#000000;strokeColor=#ff0000;" vertex="1" parent="1">
          <mxGeometry x="540" y="30" width="30" height="30" as="geometry" />
        </mxCell>
        <mxCell id="H85B8ajB7otpc1GVoilx-54" value="" style="edgeStyle=orthogonalEdgeStyle;rounded=0;orthogonalLoop=1;jettySize=auto;html=1;" edge="1" parent="1" source="H85B8ajB7otpc1GVoilx-43" target="H85B8ajB7otpc1GVoilx-44">
          <mxGeometry relative="1" as="geometry" />
        </mxCell>
        <mxCell id="H85B8ajB7otpc1GVoilx-43" value="Look up info" style="" vertex="1" parent="1">
          <mxGeometry x="500" y="90" width="110" height="50" as="geometry" />
        </mxCell>
        <mxCell id="H85B8ajB7otpc1GVoilx-55" value="" style="edgeStyle=orthogonalEdgeStyle;rounded=0;orthogonalLoop=1;jettySize=auto;html=1;" edge="1" parent="1" source="H85B8ajB7otpc1GVoilx-44" target="H85B8ajB7otpc1GVoilx-45">
          <mxGeometry relative="1" as="geometry" />
        </mxCell>
        <mxCell id="H85B8ajB7otpc1GVoilx-44" value="Create Connection" style="" vertex="1" parent="1">
          <mxGeometry x="500" y="170" width="110" height="50" as="geometry" />
        </mxCell>
        <mxCell id="H85B8ajB7otpc1GVoilx-56" value="" style="edgeStyle=orthogonalEdgeStyle;rounded=0;orthogonalLoop=1;jettySize=auto;html=1;" edge="1" parent="1" source="H85B8ajB7otpc1GVoilx-45" target="H85B8ajB7otpc1GVoilx-48">
          <mxGeometry relative="1" as="geometry" />
        </mxCell>
        <mxCell id="H85B8ajB7otpc1GVoilx-57" value="Yes" style="edgeLabel;html=1;align=center;verticalAlign=middle;resizable=0;points=[];" vertex="1" connectable="0" parent="H85B8ajB7otpc1GVoilx-56">
          <mxGeometry x="0.4" relative="1" as="geometry">
            <mxPoint y="-8" as="offset" />
          </mxGeometry>
        </mxCell>
        <mxCell id="H85B8ajB7otpc1GVoilx-68" style="edgeStyle=orthogonalEdgeStyle;rounded=0;orthogonalLoop=1;jettySize=auto;html=1;entryX=1;entryY=0.5;entryDx=0;entryDy=0;" edge="1" parent="1" source="H85B8ajB7otpc1GVoilx-45" target="H85B8ajB7otpc1GVoilx-50">
          <mxGeometry relative="1" as="geometry">
            <Array as="points">
              <mxPoint x="720" y="280" />
              <mxPoint x="720" y="675" />
            </Array>
          </mxGeometry>
        </mxCell>
        <mxCell id="H85B8ajB7otpc1GVoilx-69" value="No" style="edgeLabel;html=1;align=center;verticalAlign=middle;resizable=0;points=[];" vertex="1" connectable="0" parent="H85B8ajB7otpc1GVoilx-68">
          <mxGeometry x="-0.9333" y="1" relative="1" as="geometry">
            <mxPoint as="offset" />
          </mxGeometry>
        </mxCell>
        <mxCell id="H85B8ajB7otpc1GVoilx-45" value="connection made?" style="rhombus;fillColor=#ffffc0;strokeColor=#ff0000;" vertex="1" parent="1">
          <mxGeometry x="515" y="260" width="80" height="40" as="geometry" />
        </mxCell>
        <mxCell id="H85B8ajB7otpc1GVoilx-61" value="" style="edgeStyle=orthogonalEdgeStyle;rounded=0;orthogonalLoop=1;jettySize=auto;html=1;" edge="1" parent="1" source="H85B8ajB7otpc1GVoilx-46" target="H85B8ajB7otpc1GVoilx-49">
          <mxGeometry relative="1" as="geometry" />
        </mxCell>
        <mxCell id="H85B8ajB7otpc1GVoilx-62" value="Yes" style="edgeLabel;html=1;align=center;verticalAlign=middle;resizable=0;points=[];" vertex="1" connectable="0" parent="H85B8ajB7otpc1GVoilx-61">
          <mxGeometry x="-0.72" y="-2" relative="1" as="geometry">
            <mxPoint as="offset" />
          </mxGeometry>
        </mxCell>
        <mxCell id="H85B8ajB7otpc1GVoilx-46" value="Message available?" style="rhombus;fillColor=#ffffc0;strokeColor=#ff0000;" vertex="1" parent="1">
          <mxGeometry x="515" y="430" width="80" height="40" as="geometry" />
        </mxCell>
        <mxCell id="H85B8ajB7otpc1GVoilx-66" value="" style="edgeStyle=orthogonalEdgeStyle;rounded=0;orthogonalLoop=1;jettySize=auto;html=1;" edge="1" parent="1" source="H85B8ajB7otpc1GVoilx-47" target="H85B8ajB7otpc1GVoilx-50">
          <mxGeometry relative="1" as="geometry" />
        </mxCell>
        <mxCell id="H85B8ajB7otpc1GVoilx-72" value="No" style="edgeLabel;html=1;align=center;verticalAlign=middle;resizable=0;points=[];" vertex="1" connectable="0" parent="H85B8ajB7otpc1GVoilx-66">
          <mxGeometry x="0.2" y="-2" relative="1" as="geometry">
            <mxPoint as="offset" />
          </mxGeometry>
        </mxCell>
        <mxCell id="H85B8ajB7otpc1GVoilx-73" style="edgeStyle=orthogonalEdgeStyle;rounded=0;orthogonalLoop=1;jettySize=auto;html=1;entryX=1;entryY=0.5;entryDx=0;entryDy=0;" edge="1" parent="1" source="H85B8ajB7otpc1GVoilx-47" target="H85B8ajB7otpc1GVoilx-48">
          <mxGeometry relative="1" as="geometry">
            <Array as="points">
              <mxPoint x="670" y="600" />
              <mxPoint x="670" y="365" />
            </Array>
          </mxGeometry>
        </mxCell>
        <mxCell id="H85B8ajB7otpc1GVoilx-74" value="Yes" style="edgeLabel;html=1;align=center;verticalAlign=middle;resizable=0;points=[];" vertex="1" connectable="0" parent="H85B8ajB7otpc1GVoilx-73">
          <mxGeometry x="-0.8541" y="1" relative="1" as="geometry">
            <mxPoint as="offset" />
          </mxGeometry>
        </mxCell>
        <mxCell id="H85B8ajB7otpc1GVoilx-47" value="reply recieved?" style="rhombus;fillColor=#ffffc0;strokeColor=#ff0000;" vertex="1" parent="1">
          <mxGeometry x="515" y="580" width="80" height="40" as="geometry" />
        </mxCell>
        <mxCell id="H85B8ajB7otpc1GVoilx-60" value="" style="edgeStyle=orthogonalEdgeStyle;rounded=0;orthogonalLoop=1;jettySize=auto;html=1;" edge="1" parent="1" source="H85B8ajB7otpc1GVoilx-48" target="H85B8ajB7otpc1GVoilx-46">
          <mxGeometry relative="1" as="geometry" />
        </mxCell>
        <mxCell id="H85B8ajB7otpc1GVoilx-70" style="edgeStyle=orthogonalEdgeStyle;rounded=0;orthogonalLoop=1;jettySize=auto;html=1;entryX=0;entryY=0.5;entryDx=0;entryDy=0;exitX=0;exitY=0.5;exitDx=0;exitDy=0;" edge="1" parent="1" source="H85B8ajB7otpc1GVoilx-46" target="H85B8ajB7otpc1GVoilx-51">
          <mxGeometry relative="1" as="geometry">
            <Array as="points">
              <mxPoint x="390" y="450" />
              <mxPoint x="390" y="765" />
            </Array>
          </mxGeometry>
        </mxCell>
        <mxCell id="H85B8ajB7otpc1GVoilx-71" value="No" style="edgeLabel;html=1;align=center;verticalAlign=middle;resizable=0;points=[];" vertex="1" connectable="0" parent="H85B8ajB7otpc1GVoilx-70">
          <mxGeometry x="-0.8102" y="2" relative="1" as="geometry">
            <mxPoint as="offset" />
          </mxGeometry>
        </mxCell>
        <mxCell id="H85B8ajB7otpc1GVoilx-48" value="Get messages" style="" vertex="1" parent="1">
          <mxGeometry x="500" y="340" width="110" height="50" as="geometry" />
        </mxCell>
        <mxCell id="H85B8ajB7otpc1GVoilx-63" value="" style="edgeStyle=orthogonalEdgeStyle;rounded=0;orthogonalLoop=1;jettySize=auto;html=1;" edge="1" parent="1" source="H85B8ajB7otpc1GVoilx-49" target="H85B8ajB7otpc1GVoilx-47">
          <mxGeometry relative="1" as="geometry" />
        </mxCell>
        <mxCell id="H85B8ajB7otpc1GVoilx-49" value="Send Reply" style="" vertex="1" parent="1">
          <mxGeometry x="500" y="500" width="110" height="50" as="geometry" />
        </mxCell>
        <mxCell id="H85B8ajB7otpc1GVoilx-67" value="" style="edgeStyle=orthogonalEdgeStyle;rounded=0;orthogonalLoop=1;jettySize=auto;html=1;" edge="1" parent="1" source="H85B8ajB7otpc1GVoilx-50" target="H85B8ajB7otpc1GVoilx-51">
          <mxGeometry relative="1" as="geometry" />
        </mxCell>
        <mxCell id="H85B8ajB7otpc1GVoilx-50" value="Report error" style="" vertex="1" parent="1">
          <mxGeometry x="500" y="650" width="110" height="50" as="geometry" />
        </mxCell>
        <mxCell id="H85B8ajB7otpc1GVoilx-51" value="" style="ellipse;shape=endState;fillColor=#000000;strokeColor=#ff0000" vertex="1" parent="1">
          <mxGeometry x="540" y="750" width="30" height="30" as="geometry" />
        </mxCell>
      </root>
    </mxGraphModel>
  </diagram>
</mxfile>
